<svg width="43" height="43" viewBox="0 0 43 43" fill="none" xmlns="http://www.w3.org/2000/svg">
<path d="M18.875 42.5C18.1312 42.5 17.5074 42.248 17.0034 41.744C16.4994 41.24 16.2482 40.617 16.25 39.875V24.125L1.02499 4.7C0.368744 3.825 0.269869 2.90625 0.728369 1.94375C1.18687 0.98125 1.98574 0.5 3.12499 0.5H39.875C41.0125 0.5 41.8114 0.98125 42.2716 1.94375C42.7319 2.90625 42.633 3.825 41.975 4.7L26.75 24.125V39.875C26.75 40.6188 26.498 41.2426 25.994 41.7466C25.49 42.2506 24.867 42.5018 24.125 42.5H18.875ZM21.5 22.2875L34.4937 5.75H8.50624L21.5 22.2875Z" fill="black"/>
</svg>
