<svg width="53" height="51" viewBox="0 0 53 51" fill="none" xmlns="http://www.w3.org/2000/svg">
<path d="M5.5 50.125C4.05625 50.125 2.81987 49.6105 1.79087 48.5815C0.761872 47.5525 0.248247 46.317 0.249997 44.875V16C0.249997 14.5563 0.764497 13.3199 1.7935 12.2909C2.8225 11.2619 4.058 10.7483 5.5 10.75H16V5.5C16 4.05625 16.5145 2.81988 17.5435 1.79088C18.5725 0.761879 19.808 0.248254 21.25 0.250004H31.75C33.1937 0.250004 34.4301 0.764505 35.4591 1.7935C36.4881 2.8225 37.0017 4.058 37 5.5V10.75H47.5C48.9437 10.75 50.1801 11.2645 51.2091 12.2935C52.2381 13.3225 52.7517 14.558 52.75 16V44.875C52.75 46.3188 52.2355 47.5551 51.2065 48.5841C50.1775 49.6131 48.942 50.1268 47.5 50.125H5.5ZM5.5 44.875H47.5V16H5.5V44.875ZM21.25 10.75H31.75V5.5H21.25V10.75Z" fill="black"/>
</svg>
