<svg width="48" height="47" viewBox="0 0 48 47" fill="none" xmlns="http://www.w3.org/2000/svg">
<path d="M42.6125 46.2875L27.9125 31.5875C26.6 32.6375 25.0906 33.4688 23.3844 34.0812C21.6781 34.6937 19.8625 35 17.9375 35C13.1687 35 9.13325 33.348 5.831 30.044C2.52875 26.74 0.87675 22.7045 0.875 17.9375C0.875 13.1687 2.527 9.13325 5.831 5.831C9.135 2.52875 13.1705 0.87675 17.9375 0.875C22.7062 0.875 26.7418 2.527 30.044 5.831C33.3463 9.135 34.9982 13.1705 35 17.9375C35 19.8625 34.6937 21.6781 34.0812 23.3844C33.4688 25.0906 32.6375 26.6 31.5875 27.9125L46.3531 42.6781C46.8344 43.1594 47.075 43.75 47.075 44.45C47.075 45.15 46.8125 45.7625 46.2875 46.2875C45.8062 46.7687 45.1938 47.0094 44.45 47.0094C43.7062 47.0094 43.0938 46.7687 42.6125 46.2875ZM17.9375 29.75C21.2188 29.75 24.0082 28.6011 26.306 26.3034C28.6037 24.0056 29.7518 21.217 29.75 17.9375C29.75 14.6562 28.6011 11.8667 26.3034 9.569C24.0056 7.27125 21.217 6.12325 17.9375 6.125C14.6562 6.125 11.8667 7.27388 9.569 9.57163C7.27125 11.8694 6.12325 14.658 6.125 17.9375C6.125 21.2188 7.27388 24.0082 9.57163 26.306C11.8694 28.6037 14.658 29.7518 17.9375 29.75Z" fill="black"/>
</svg>
