<svg width="52" height="53" viewBox="0 0 52 53" fill="none" xmlns="http://www.w3.org/2000/svg">
<path d="M51.6875 39.625L38.5625 52.75L29.375 43.5625L33.3125 39.625L38.5625 44.875L47.75 35.6875L51.6875 39.625ZM5.75 0.25C4.35761 0.25 3.02226 0.803123 2.03769 1.78769C1.05312 2.77226 0.5 4.10761 0.5 5.5V47.5C0.5 50.4137 2.83625 52.75 5.75 52.75H26.2513C25.3063 51.1225 24.65 49.3375 24.335 47.5H5.75V5.5H24.125V18.625H37.25V29.335C38.1162 29.2038 39.0088 29.125 39.875 29.125C40.7675 29.125 41.6338 29.2038 42.5 29.335V16L26.75 0.25M11 26.5V31.75H32V26.5M11 37V42.25H24.125V37H11Z" fill="black"/>
</svg>
