<svg width="38" height="26" viewBox="0 0 38 26" fill="none" xmlns="http://www.w3.org/2000/svg">
<path d="M2.33334 25.5C1.74306 25.5 1.24792 25.3 0.847924 24.9C0.447924 24.5 0.248618 24.0056 0.250007 23.4167C0.250007 22.8264 0.450007 22.3313 0.850007 21.9313C1.25001 21.5313 1.74445 21.332 2.33334 21.3333H35.6667C36.257 21.3333 36.7521 21.5333 37.1521 21.9333C37.5521 22.3333 37.7514 22.8278 37.75 23.4167C37.75 24.007 37.55 24.5021 37.15 24.9021C36.75 25.3021 36.2556 25.5014 35.6667 25.5H2.33334ZM2.33334 15.0833C1.74306 15.0833 1.24792 14.8833 0.847924 14.4833C0.447924 14.0833 0.248618 13.5889 0.250007 13C0.250007 12.4097 0.450007 11.9146 0.850007 11.5146C1.25001 11.1146 1.74445 10.9153 2.33334 10.9167H35.6667C36.257 10.9167 36.7521 11.1167 37.1521 11.5167C37.5521 11.9167 37.7514 12.4111 37.75 13C37.75 13.5903 37.55 14.0854 37.15 14.4854C36.75 14.8854 36.2556 15.0847 35.6667 15.0833H2.33334ZM2.33334 4.66667C1.74306 4.66667 1.24792 4.46667 0.847924 4.06667C0.447924 3.66667 0.248618 3.17223 0.250007 2.58334C0.250007 1.99306 0.450007 1.49792 0.850007 1.09792C1.25001 0.697924 1.74445 0.498618 2.33334 0.500007H35.6667C36.257 0.500007 36.7521 0.700007 37.1521 1.10001C37.5521 1.50001 37.7514 1.99445 37.75 2.58334C37.75 3.17362 37.55 3.66876 37.15 4.06876C36.75 4.46876 36.2556 4.66806 35.6667 4.66667H2.33334Z" fill="white"/>
</svg>
